<svg width="172" height="36" viewBox="0 0 172 36" fill="none" xmlns="http://www.w3.org/2000/svg">
<path d="M0.046875 0.078125H9.14062L18.75 23.5391H19.1484L28.7812 0.078125H37.9453V35H30.7031V12.2656H30.4453L21.375 34.8359H16.4766L7.5 12.2188H7.19531V35H0.046875V0.078125ZM51.1406 19.8594V35H43.875V8.79688H51.0234V13.4609H51.2812C51.875 11.9297 52.8203 10.7188 54.1172 9.82812C55.4141 8.92188 57.0312 8.46875 58.9688 8.46875C61.7031 8.46875 63.8906 9.35156 65.5312 11.1172C67.1875 12.8672 68.0156 15.2734 68.0156 18.3359V35H60.75V19.625C60.75 18.0156 60.3359 16.7578 59.5078 15.8516C58.6953 14.9453 57.5625 14.4922 56.1094 14.4922C54.6406 14.4922 53.4453 14.9688 52.5234 15.9219C51.6016 16.8594 51.1406 18.1719 51.1406 19.8594Z" fill="url(#paint0_linear_8_375)"/>
<path d="M85.7578 35.5156C83.0703 35.5156 80.7578 34.9688 78.8203 33.875C76.8828 32.7812 75.3906 31.2266 74.3438 29.2109C73.2969 27.1797 72.7734 24.7812 72.7734 22.0156C72.7734 19.3281 73.2891 16.9688 74.3203 14.9375C75.3672 12.9062 76.8359 11.3203 78.7266 10.1797C80.6172 9.03906 82.8438 8.46875 85.4062 8.46875C87.7188 8.46875 89.8047 8.96094 91.6641 9.94531C93.5391 10.9297 95.0234 12.4062 96.1172 14.375C97.2266 16.3438 97.7812 18.8125 97.7812 21.7812V23.75H79.9219C80 25.7344 80.5781 27.2891 81.6562 28.4141C82.7344 29.5391 84.1406 30.1016 85.875 30.1016C87.0781 30.1016 88.1094 29.8438 88.9688 29.3281C89.8438 28.8125 90.4688 28.0625 90.8438 27.0781L97.5469 27.5234C97.0312 29.9297 95.7422 31.8672 93.6797 33.3359C91.6328 34.7891 88.9922 35.5156 85.7578 35.5156ZM79.9688 19.2734H90.8203C90.6484 17.6172 90.1172 16.3047 89.2266 15.3359C88.3359 14.3672 87.0859 13.8828 85.4766 13.8828C83.8516 13.8828 82.5625 14.3906 81.6094 15.4062C80.6719 16.4062 80.125 17.6953 79.9688 19.2734ZM102.562 35V8.79688H109.453V13.4609H109.781C110.328 11.9141 111.242 10.6953 112.523 9.80469C113.805 8.91406 115.328 8.46875 117.094 8.46875C118.891 8.46875 120.414 8.92188 121.664 9.82812C122.93 10.7188 123.766 11.9297 124.172 13.4609H124.453C125 11.9453 125.969 10.7344 127.359 9.82812C128.766 8.92188 130.43 8.46875 132.352 8.46875C134.789 8.46875 136.773 9.24219 138.305 10.7891C139.852 12.3359 140.625 14.5312 140.625 17.375V35H133.359V18.8281C133.359 17.3594 132.969 16.2656 132.188 15.5469C131.422 14.8281 130.461 14.4688 129.305 14.4688C127.992 14.4688 126.961 14.8906 126.211 15.7344C125.477 16.5625 125.109 17.6562 125.109 19.0156V35H118.055V18.6406C118.055 17.375 117.688 16.3672 116.953 15.6172C116.234 14.8516 115.281 14.4688 114.094 14.4688C112.875 14.4688 111.859 14.9141 111.047 15.8047C110.234 16.6797 109.828 17.8438 109.828 19.2969V35H102.562ZM158.25 35.5156C155.609 35.5156 153.32 34.9531 151.383 33.8281C149.461 32.6875 147.977 31.1094 146.93 29.0938C145.898 27.0625 145.383 24.7031 145.383 22.0156C145.383 19.3125 145.898 16.9453 146.93 14.9141C147.977 12.8828 149.461 11.3047 151.383 10.1797C153.32 9.03906 155.609 8.46875 158.25 8.46875C160.906 8.46875 163.195 9.03906 165.117 10.1797C167.055 11.3047 168.539 12.8828 169.57 14.9141C170.617 16.9453 171.141 19.3125 171.141 22.0156C171.141 24.7031 170.617 27.0625 169.57 29.0938C168.539 31.1094 167.055 32.6875 165.117 33.8281C163.195 34.9531 160.906 35.5156 158.25 35.5156ZM152.766 21.9688C152.766 24.25 153.227 26.1328 154.148 27.6172C155.07 29.1016 156.445 29.8438 158.273 29.8438C160.086 29.8438 161.453 29.1016 162.375 27.6172C163.297 26.1328 163.758 24.25 163.758 21.9688C163.758 19.6875 163.297 17.8125 162.375 16.3438C161.453 14.875 160.086 14.1406 158.273 14.1406C156.445 14.1406 155.07 14.875 154.148 16.3438C153.227 17.8125 152.766 19.6875 152.766 21.9688Z" fill="#B2B2B2"/>
<defs>
<linearGradient id="paint0_linear_8_375" x1="200.133" y1="7.5375" x2="-5.70879" y2="45.5805" gradientUnits="userSpaceOnUse">
<stop offset="0.756667" stop-color="#2881B1"/>
<stop offset="0.875" stop-color="#3955B0"/>
</linearGradient>
</defs>
</svg>
