<svg width="27" height="27" viewBox="0 0 27 27" fill="none" xmlns="http://www.w3.org/2000/svg">
<g clip-path="url(#clip0_200_38)">
<circle cx="13.5" cy="13.5" r="13.5" fill="#D9534F"/>
<path fill-rule="evenodd" clip-rule="evenodd" d="M12.634 7.5C13.0189 6.83333 13.9811 6.83333 14.366 7.5L19.9952 17.25C20.3801 17.9167 19.8989 18.75 19.1291 18.75H7.87081C7.10101 18.75 6.61989 17.9167 7.00479 17.25L12.634 7.5ZM13 9.5C13 9.22386 13.2238 9 13.5 9C13.7761 9 14 9.22386 14 9.5V13.5C14 13.7761 13.7761 14 13.5 14C13.2238 14 13 13.7761 13 13.5V9.5ZM13.5 18C14.3284 18 15 17.3284 15 16.5C15 15.6716 14.3284 15 13.5 15C12.6716 15 12 15.6716 12 16.5C12 17.3284 12.6716 18 13.5 18Z" fill="#D9D9D9"/>
</g>
<defs>
<clipPath id="clip0_200_38">
<rect width="27" height="27" fill="white"/>
</clipPath>
</defs>
</svg>
