<svg width="173" height="38" viewBox="0 0 173 38" fill="none" xmlns="http://www.w3.org/2000/svg">
<path d="M0.0193594 29L9.84736 3.8H14.2394L23.9954 29H19.1354L13.7354 14.672C13.6154 14.384 13.4474 13.928 13.2314 13.304C13.0394 12.68 12.8234 12.008 12.5834 11.288C12.3434 10.544 12.1274 9.86 11.9354 9.236C11.7434 8.588 11.5994 8.12 11.5034 7.832L12.4034 7.796C12.2594 8.276 12.0914 8.816 11.8994 9.416C11.7074 10.016 11.5034 10.64 11.2874 11.288C11.0714 11.936 10.8554 12.56 10.6394 13.16C10.4474 13.76 10.2674 14.3 10.0994 14.78L4.69936 29H0.0193594ZM4.48336 23.24L6.10336 19.172H17.5874L19.3154 23.24H4.48336ZM27.1721 29V10.028H31.4921L31.5641 13.916L30.7361 14.348C30.9761 13.484 31.4441 12.704 32.1401 12.008C32.8361 11.288 33.6641 10.712 34.6241 10.28C35.5841 9.848 36.5681 9.632 37.5761 9.632C39.0161 9.632 40.2161 9.92 41.1761 10.496C42.1601 11.072 42.8921 11.936 43.3721 13.088C43.8761 14.24 44.1281 15.68 44.1281 17.408V29H39.7001V17.732C39.7001 16.772 39.5681 15.98 39.3041 15.356C39.0401 14.708 38.6321 14.24 38.0801 13.952C37.5281 13.64 36.8561 13.496 36.0641 13.52C35.4161 13.52 34.8161 13.628 34.2641 13.844C33.7361 14.036 33.2681 14.324 32.8601 14.708C32.4761 15.068 32.1641 15.488 31.9241 15.968C31.7081 16.448 31.6001 16.976 31.6001 17.552V29H29.4041C28.9721 29 28.5641 29 28.1801 29C27.8201 29 27.4841 29 27.1721 29ZM56.2736 29.36C54.7136 29.36 53.2976 28.928 52.0256 28.064C50.7536 27.2 49.7336 26.024 48.9656 24.536C48.1976 23.048 47.8136 21.356 47.8136 19.46C47.8136 17.564 48.1976 15.872 48.9656 14.384C49.7336 12.896 50.7776 11.732 52.0976 10.892C53.4176 10.052 54.9056 9.632 56.5616 9.632C57.5216 9.632 58.3976 9.776 59.1896 10.064C59.9816 10.328 60.6776 10.712 61.2776 11.216C61.8776 11.72 62.3696 12.296 62.7536 12.944C63.1616 13.592 63.4376 14.288 63.5816 15.032L62.6096 14.78V10.028H67.0736V29H62.5736V24.464L63.6176 24.284C63.4496 24.932 63.1376 25.568 62.6816 26.192C62.2496 26.792 61.6976 27.332 61.0256 27.812C60.3776 28.268 59.6456 28.64 58.8296 28.928C58.0376 29.216 57.1856 29.36 56.2736 29.36ZM57.4976 25.436C58.5296 25.436 59.4416 25.184 60.2336 24.68C61.0256 24.176 61.6376 23.48 62.0696 22.592C62.5256 21.68 62.7536 20.636 62.7536 19.46C62.7536 18.308 62.5256 17.288 62.0696 16.4C61.6376 15.512 61.0256 14.816 60.2336 14.312C59.4416 13.808 58.5296 13.556 57.4976 13.556C56.4656 13.556 55.5536 13.808 54.7616 14.312C53.9936 14.816 53.3936 15.512 52.9616 16.4C52.5296 17.288 52.3136 18.308 52.3136 19.46C52.3136 20.636 52.5296 21.68 52.9616 22.592C53.3936 23.48 53.9936 24.176 54.7616 24.68C55.5536 25.184 56.4656 25.436 57.4976 25.436ZM72.2432 29V2.36H76.7072V29H72.2432ZM84.263 37.28L88.295 27.956L88.331 30.908L78.971 10.028H84.083L89.303 22.412C89.471 22.724 89.639 23.144 89.807 23.672C89.975 24.176 90.119 24.68 90.239 25.184L89.339 25.472C89.507 25.016 89.687 24.536 89.879 24.032C90.071 23.504 90.251 22.964 90.419 22.412L94.883 10.028H100.031L92.111 29L88.871 37.28H84.263ZM102.001 29V25.832L111.901 12.8V13.736H102.001V10.028H116.509V13.196L106.897 25.976L106.753 25.292H116.761V29H102.001ZM121.543 29V10.028H125.971V29H121.543ZM123.703 5.996C122.815 5.996 122.119 5.78 121.615 5.348C121.135 4.892 120.895 4.256 120.895 3.44C120.895 2.672 121.147 2.048 121.651 1.568C122.155 1.088 122.839 0.847998 123.703 0.847998C124.615 0.847998 125.311 1.076 125.791 1.532C126.295 1.964 126.547 2.6 126.547 3.44C126.547 4.184 126.295 4.796 125.791 5.276C125.287 5.756 124.591 5.996 123.703 5.996ZM131.586 29V10.028H135.906L135.978 13.916L135.15 14.348C135.39 13.484 135.858 12.704 136.554 12.008C137.25 11.288 138.078 10.712 139.038 10.28C139.998 9.848 140.982 9.632 141.99 9.632C143.43 9.632 144.63 9.92 145.59 10.496C146.574 11.072 147.306 11.936 147.786 13.088C148.29 14.24 148.542 15.68 148.542 17.408V29H144.114V17.732C144.114 16.772 143.982 15.98 143.718 15.356C143.454 14.708 143.046 14.24 142.494 13.952C141.942 13.64 141.27 13.496 140.478 13.52C139.83 13.52 139.23 13.628 138.678 13.844C138.15 14.036 137.682 14.324 137.274 14.708C136.89 15.068 136.578 15.488 136.338 15.968C136.122 16.448 136.014 16.976 136.014 17.552V29H133.818C133.386 29 132.978 29 132.594 29C132.234 29 131.898 29 131.586 29ZM162.056 37.28C160.64 37.28 159.224 37.064 157.808 36.632C156.416 36.2 155.288 35.636 154.424 34.94L156.008 31.664C156.512 32.024 157.076 32.336 157.7 32.6C158.324 32.864 158.984 33.068 159.68 33.212C160.4 33.356 161.108 33.428 161.804 33.428C163.076 33.428 164.132 33.224 164.972 32.816C165.836 32.432 166.484 31.832 166.916 31.016C167.348 30.224 167.564 29.228 167.564 28.028V24.536L168.212 24.788C168.068 25.532 167.672 26.24 167.024 26.912C166.376 27.584 165.56 28.136 164.576 28.568C163.592 28.976 162.584 29.18 161.552 29.18C159.752 29.18 158.156 28.76 156.764 27.92C155.396 27.08 154.304 25.94 153.488 24.5C152.696 23.036 152.3 21.356 152.3 19.46C152.3 17.564 152.696 15.884 153.488 14.42C154.28 12.932 155.36 11.768 156.728 10.928C158.12 10.064 159.68 9.632 161.408 9.632C162.128 9.632 162.824 9.716 163.496 9.884C164.168 10.052 164.78 10.292 165.332 10.604C165.908 10.916 166.424 11.264 166.88 11.648C167.336 12.032 167.708 12.44 167.996 12.872C168.284 13.304 168.464 13.724 168.536 14.132L167.6 14.42L167.672 10.028H172.028V27.704C172.028 29.24 171.8 30.596 171.344 31.772C170.888 32.948 170.228 33.944 169.364 34.76C168.5 35.6 167.456 36.224 166.232 36.632C165.008 37.064 163.616 37.28 162.056 37.28ZM162.236 25.4C163.316 25.4 164.264 25.148 165.08 24.644C165.92 24.14 166.568 23.444 167.024 22.556C167.48 21.668 167.708 20.648 167.708 19.496C167.708 18.32 167.468 17.288 166.988 16.4C166.532 15.488 165.896 14.78 165.08 14.276C164.264 13.772 163.316 13.52 162.236 13.52C161.156 13.52 160.208 13.784 159.392 14.312C158.576 14.816 157.928 15.524 157.448 16.436C156.992 17.324 156.764 18.344 156.764 19.496C156.764 20.624 156.992 21.644 157.448 22.556C157.928 23.444 158.576 24.14 159.392 24.644C160.208 25.148 161.156 25.4 162.236 25.4Z" fill="url(#paint0_linear_144_26)"/>
<defs>
<linearGradient id="paint0_linear_144_26" x1="-6.21237" y1="5.55556" x2="80.2695" y2="3.65321" gradientUnits="userSpaceOnUse">
<stop stop-color="#2881B1"/>
<stop offset="1" stop-color="#3955B0"/>
</linearGradient>
</defs>
</svg>
