<svg width="150" height="38" viewBox="0 0 150 38" fill="none" xmlns="http://www.w3.org/2000/svg">
<path d="M12.453 29.36C10.629 29.36 8.96095 29.048 7.44895 28.424C5.93695 27.8 4.62895 26.912 3.52495 25.76C2.42095 24.584 1.55695 23.204 0.932953 21.62C0.332953 20.012 0.0329533 18.26 0.0329533 16.364C0.0329533 14.54 0.356953 12.848 1.00495 11.288C1.65295 9.728 2.55295 8.36 3.70495 7.184C4.85695 6.008 6.20095 5.096 7.73695 4.448C9.27295 3.8 10.941 3.476 12.741 3.476C13.965 3.476 15.153 3.656 16.305 4.016C17.457 4.376 18.513 4.88 19.473 5.528C20.433 6.152 21.237 6.884 21.885 7.724L18.897 11C18.273 10.352 17.625 9.812 16.953 9.38C16.305 8.924 15.621 8.588 14.901 8.372C14.205 8.132 13.485 8.012 12.741 8.012C11.637 8.012 10.593 8.216 9.60895 8.624C8.64895 9.032 7.80895 9.608 7.08895 10.352C6.39295 11.096 5.84095 11.984 5.43295 13.016C5.02495 14.024 4.82095 15.152 4.82095 16.4C4.82095 17.672 5.01295 18.824 5.39695 19.856C5.80495 20.888 6.36895 21.776 7.08895 22.52C7.83295 23.264 8.70895 23.84 9.71695 24.248C10.749 24.632 11.877 24.824 13.101 24.824C13.893 24.824 14.661 24.716 15.405 24.5C16.149 24.284 16.833 23.984 17.457 23.6C18.105 23.192 18.693 22.724 19.221 22.196L21.525 25.904C20.949 26.552 20.181 27.14 19.221 27.668C18.261 28.196 17.181 28.616 15.981 28.928C14.805 29.216 13.629 29.36 12.453 29.36ZM25.5783 29V10.028H29.9343L30.0063 16.076L29.3943 14.708C29.6583 13.748 30.1143 12.884 30.7623 12.116C31.4103 11.348 32.1543 10.748 32.9943 10.316C33.8583 9.86 34.7583 9.632 35.6943 9.632C36.1023 9.632 36.4863 9.668 36.8463 9.74C37.2303 9.812 37.5423 9.896 37.7823 9.992L36.5943 14.852C36.3303 14.708 36.0063 14.588 35.6223 14.492C35.2383 14.396 34.8543 14.348 34.4703 14.348C33.8703 14.348 33.2943 14.468 32.7423 14.708C32.2143 14.924 31.7463 15.236 31.3383 15.644C30.9303 16.052 30.6063 16.532 30.3663 17.084C30.1503 17.612 30.0423 18.212 30.0423 18.884V29H25.5783ZM48.8141 29.36C46.8221 29.36 45.0581 28.94 43.5221 28.1C42.0101 27.26 40.8221 26.12 39.9581 24.68C39.1181 23.216 38.6981 21.548 38.6981 19.676C38.6981 18.188 38.9381 16.832 39.4181 15.608C39.8981 14.384 40.5581 13.328 41.3981 12.44C42.2621 11.528 43.2821 10.832 44.4581 10.352C45.6581 9.848 46.9661 9.596 48.3821 9.596C49.6301 9.596 50.7941 9.836 51.8741 10.316C52.9541 10.796 53.8901 11.456 54.6821 12.296C55.4741 13.112 56.0741 14.096 56.4821 15.248C56.9141 16.376 57.1181 17.612 57.0941 18.956L57.0581 20.504H41.6861L40.8581 17.48H53.3501L52.7741 18.092V17.3C52.7021 16.556 52.4621 15.908 52.0541 15.356C51.6461 14.78 51.1181 14.336 50.4701 14.024C49.8461 13.688 49.1501 13.52 48.3821 13.52C47.2061 13.52 46.2101 13.748 45.3941 14.204C44.6021 14.66 44.0021 15.32 43.5941 16.184C43.1861 17.024 42.9821 18.08 42.9821 19.352C42.9821 20.576 43.2341 21.644 43.7381 22.556C44.2661 23.468 44.9981 24.176 45.9341 24.68C46.8941 25.16 48.0101 25.4 49.2821 25.4C50.1701 25.4 50.9861 25.256 51.7301 24.968C52.4741 24.68 53.2781 24.164 54.1421 23.42L56.3381 26.48C55.6901 27.08 54.9461 27.596 54.1061 28.028C53.2901 28.436 52.4261 28.76 51.5141 29C50.6021 29.24 49.7021 29.36 48.8141 29.36ZM68.1798 29.36C66.6198 29.36 65.2038 28.928 63.9318 28.064C62.6598 27.2 61.6398 26.024 60.8718 24.536C60.1038 23.048 59.7198 21.356 59.7198 19.46C59.7198 17.564 60.1038 15.872 60.8718 14.384C61.6398 12.896 62.6838 11.732 64.0038 10.892C65.3238 10.052 66.8118 9.632 68.4678 9.632C69.4278 9.632 70.3038 9.776 71.0958 10.064C71.8878 10.328 72.5838 10.712 73.1838 11.216C73.7838 11.72 74.2758 12.296 74.6598 12.944C75.0678 13.592 75.3438 14.288 75.4878 15.032L74.5158 14.78V10.028H78.9798V29H74.4798V24.464L75.5238 24.284C75.3558 24.932 75.0438 25.568 74.5878 26.192C74.1558 26.792 73.6038 27.332 72.9318 27.812C72.2838 28.268 71.5518 28.64 70.7358 28.928C69.9438 29.216 69.0918 29.36 68.1798 29.36ZM69.4038 25.436C70.4358 25.436 71.3478 25.184 72.1398 24.68C72.9318 24.176 73.5438 23.48 73.9758 22.592C74.4318 21.68 74.6598 20.636 74.6598 19.46C74.6598 18.308 74.4318 17.288 73.9758 16.4C73.5438 15.512 72.9318 14.816 72.1398 14.312C71.3478 13.808 70.4358 13.556 69.4038 13.556C68.3718 13.556 67.4598 13.808 66.6678 14.312C65.8998 14.816 65.2998 15.512 64.8678 16.4C64.4358 17.288 64.2198 18.308 64.2198 19.46C64.2198 20.636 64.4358 21.68 64.8678 22.592C65.2998 23.48 65.8998 24.176 66.6678 24.68C67.4598 25.184 68.3718 25.436 69.4038 25.436ZM86.1655 29V5.204H90.5935V29H86.1655ZM82.4215 14.132V10.028H94.7335V14.132H82.4215ZM98.6097 29V10.028H103.038V29H98.6097ZM100.77 5.996C99.8817 5.996 99.1857 5.78 98.6817 5.348C98.2017 4.892 97.9617 4.256 97.9617 3.44C97.9617 2.672 98.2137 2.048 98.7177 1.568C99.2217 1.088 99.9057 0.847998 100.77 0.847998C101.682 0.847998 102.378 1.076 102.858 1.532C103.362 1.964 103.614 2.6 103.614 3.44C103.614 4.184 103.362 4.796 102.858 5.276C102.354 5.756 101.658 5.996 100.77 5.996ZM108.653 29V10.028H112.973L113.045 13.916L112.217 14.348C112.457 13.484 112.925 12.704 113.621 12.008C114.317 11.288 115.145 10.712 116.105 10.28C117.065 9.848 118.049 9.632 119.057 9.632C120.497 9.632 121.697 9.92 122.657 10.496C123.641 11.072 124.373 11.936 124.853 13.088C125.357 14.24 125.609 15.68 125.609 17.408V29H121.181V17.732C121.181 16.772 121.049 15.98 120.785 15.356C120.521 14.708 120.113 14.24 119.561 13.952C119.009 13.64 118.337 13.496 117.545 13.52C116.897 13.52 116.297 13.628 115.745 13.844C115.217 14.036 114.749 14.324 114.341 14.708C113.957 15.068 113.645 15.488 113.405 15.968C113.189 16.448 113.081 16.976 113.081 17.552V29H110.885C110.453 29 110.045 29 109.661 29C109.301 29 108.965 29 108.653 29ZM139.122 37.28C137.706 37.28 136.29 37.064 134.874 36.632C133.482 36.2 132.354 35.636 131.49 34.94L133.074 31.664C133.578 32.024 134.142 32.336 134.766 32.6C135.39 32.864 136.05 33.068 136.746 33.212C137.466 33.356 138.174 33.428 138.87 33.428C140.142 33.428 141.198 33.224 142.038 32.816C142.902 32.432 143.55 31.832 143.982 31.016C144.414 30.224 144.63 29.228 144.63 28.028V24.536L145.278 24.788C145.134 25.532 144.738 26.24 144.09 26.912C143.442 27.584 142.626 28.136 141.642 28.568C140.658 28.976 139.65 29.18 138.618 29.18C136.818 29.18 135.222 28.76 133.83 27.92C132.462 27.08 131.37 25.94 130.554 24.5C129.762 23.036 129.366 21.356 129.366 19.46C129.366 17.564 129.762 15.884 130.554 14.42C131.346 12.932 132.426 11.768 133.794 10.928C135.186 10.064 136.746 9.632 138.474 9.632C139.194 9.632 139.89 9.716 140.562 9.884C141.234 10.052 141.846 10.292 142.398 10.604C142.974 10.916 143.49 11.264 143.946 11.648C144.402 12.032 144.774 12.44 145.062 12.872C145.35 13.304 145.53 13.724 145.602 14.132L144.666 14.42L144.738 10.028H149.094V27.704C149.094 29.24 148.866 30.596 148.41 31.772C147.954 32.948 147.294 33.944 146.43 34.76C145.566 35.6 144.522 36.224 143.298 36.632C142.074 37.064 140.682 37.28 139.122 37.28ZM139.302 25.4C140.382 25.4 141.33 25.148 142.146 24.644C142.986 24.14 143.634 23.444 144.09 22.556C144.546 21.668 144.774 20.648 144.774 19.496C144.774 18.32 144.534 17.288 144.054 16.4C143.598 15.488 142.962 14.78 142.146 14.276C141.33 13.772 140.382 13.52 139.302 13.52C138.222 13.52 137.274 13.784 136.458 14.312C135.642 14.816 134.994 15.524 134.514 16.436C134.058 17.324 133.83 18.344 133.83 19.496C133.83 20.624 134.058 21.644 134.514 22.556C134.994 23.444 135.642 24.14 136.458 24.644C137.274 25.148 138.222 25.4 139.302 25.4Z" fill="url(#paint0_linear_143_18)"/>
<defs>
<linearGradient id="paint0_linear_143_18" x1="-18.2124" y1="5.55556" x2="68.2695" y2="3.65321" gradientUnits="userSpaceOnUse">
<stop stop-color="#2881B1"/>
<stop offset="1" stop-color="#3955B0"/>
</linearGradient>
</defs>
</svg>
