<svg version="1.2" xmlns="http://www.w3.org/2000/svg" viewBox="0 0 192 192" width="96" height="96"><style>.a{fill:#fff}</style><path class="a" d="m88.1 14.1c-2.2 0.5-4.8 2.4-6.8 4.9-2.3 2.8-3.5 5.5-3.9 8.8-0.4 2.6-0.4 6.4 0 8.4 0.3 2.1 1.7 5.9 3.1 8.5 1.7 3.3 2.2 5.5 1.7 7.1-0.4 1.2-1.8 2.7-3.2 3.3-1.4 0.6-3.4 0.8-4.5 0.3-1.1-0.4-4.7-1.1-8-1.5-3.3-0.5-9.8-1.4-14.5-2-7-1-9.1-1-11.9 0.2-1.9 0.8-4.5 2.6-5.8 4.1-2.2 2.7-2.3 3.3-2.3 22.6-0.1 17.6 0.1 19.9 1.7 21.4 1 1 3.4 1.8 5.6 1.8 2.2 0 5.4-1 8-2.5 3.2-1.9 5.6-2.5 10.2-2.5 4.3 0 6.9 0.6 9.3 2 1.7 1.1 4.6 3.9 6.2 6.3 2.5 3.4 3.1 5.2 3 9.4 0 2.9-0.6 6.5-1.4 8-0.7 1.6-3.3 4.5-5.7 6.6-4.2 3.6-4.7 3.7-11.4 3.7-5.7 0-7.8-0.5-11-2.5-2.2-1.3-5.3-2.5-7-2.5-1.9 0-3.8 0.8-5.2 2.2-2.1 2.1-2.3 3.3-2.3 14 0 8.3 0.4 12.8 1.5 15.3 0.8 2 2.8 4.2 4.5 5 2.6 1.3 11.2 1.5 58.8 1.5 48 0 56-0.2 58-1.5 1.2-0.8 2.9-2.8 3.7-4.5 1.3-2.5 1.5-10.4 1.5-52v-49c-3.6-4.3-6.2-6.1-8.1-6.9-2.8-1.2-4.9-1.2-11.9-0.2-4.7 0.6-11.2 1.5-14.5 2-3.3 0.4-6.9 1.1-8 1.5-1.1 0.5-3.1 0.3-4.5-0.3-1.4-0.6-2.8-2.1-3.2-3.3-0.5-1.6 0.1-3.8 1.8-7.3 1.4-2.8 2.8-7 3.1-9.5 0.3-2.5 0.3-6.2-0.1-8.3-0.3-2.1-2-5.3-3.8-7.4-1.8-2-4.8-4.2-6.5-5-1.8-0.7-5.4-1.3-8-1.2-2.7 0-6.4 0.5-8.2 1z"/></svg>