<svg width="39" height="40" viewBox="0 0 39 40" fill="none" xmlns="http://www.w3.org/2000/svg">
<g clip-path="url(#clip0_267_55)">
<path d="M13.9536 5.51315C13.059 5.78946 11.8464 6.22367 11.2699 6.51973C10.7133 6.79604 9.58012 7.52631 8.76506 8.15788C7.95 8.76973 6.81687 9.89473 6.22048 10.6447C5.6241 11.4145 4.82892 12.6579 4.47108 13.4079C4.09337 14.1776 3.61627 15.5 3.39759 16.3684C3.11928 17.4342 3 18.5987 3 19.921C3 21.2631 3.13916 22.4079 3.39759 23.4737C3.63614 24.3421 4.09337 25.6447 4.41145 26.3355C4.7494 27.046 5.5247 28.2697 6.16084 29.0789C6.77711 29.8881 7.83072 30.9539 8.48675 31.4671C9.14277 31.9803 10.256 32.7303 10.9717 33.1053C11.6873 33.5 13.0789 34.0329 14.053 34.3092C15.4843 34.7237 16.2795 34.8224 18.0289 34.8224C19.7783 34.8224 20.5735 34.7039 21.9651 34.3092C22.9193 34.0329 24.1717 33.5789 24.7482 33.3026C25.3048 33.0066 26.438 32.2763 27.253 31.6645C28.0482 31.0526 29.0024 30.2039 29.3404 29.7697L29.9566 29C26.756 29.2566 26.6566 29.2368 26.3982 28.8224C26.2392 28.5855 26.0205 28.0526 25.9012 27.6381C25.7819 27.2434 25.6229 26.9079 25.5831 26.9079C25.5235 26.9079 24.9072 27.3224 24.2313 27.8553C23.5554 28.3684 22.5018 29 21.9054 29.2171C21.2892 29.4539 20.2157 29.7303 19.5199 29.8684C18.7843 30.0066 17.7506 30.046 17.1343 29.9671C16.538 29.8881 15.5042 29.671 14.8482 29.4737C14.1922 29.2763 13.1187 28.7631 12.4627 28.3487C11.8066 27.9342 10.9518 27.2434 10.5741 26.8092C10.1964 26.3947 9.63976 25.6447 9.32169 25.1513C9.00361 24.6579 8.56627 23.6908 8.34759 22.9803C8.0494 22.0724 7.93012 21.1645 7.93012 19.921C7.93012 18.6776 8.0494 17.75 8.32771 16.8618C8.56627 16.1513 9.08313 15.046 9.5006 14.3947C9.93795 13.7434 10.6337 12.8947 11.0512 12.5197C11.4886 12.1645 12.244 11.5921 12.7211 11.2763C13.2181 10.9803 14.212 10.546 14.9078 10.3092C15.8223 10.0329 16.7367 9.91446 17.9892 9.89473C19.2416 9.89473 20.1759 10.0131 21.0705 10.3092C21.7861 10.5263 22.8994 11.0395 23.5554 11.4539C24.2114 11.8881 25.1458 12.6579 25.603 13.1908C26.0801 13.7237 26.7361 14.7105 27.0542 15.3618C27.3723 16.0131 27.7898 17.1974 27.9488 18.0263C28.1476 18.9934 28.2271 19.9803 28.1476 20.8684L28.0283 22.2697C31.5669 24.5592 32.1633 24.8553 32.2825 24.6776C32.362 24.5395 32.5608 23.8289 32.7199 23.0987C32.8789 22.3684 33.0181 20.8881 33.0181 19.8421C33.0181 18.5395 32.8789 17.3947 32.6205 16.3289C32.3819 15.4605 31.9247 14.1776 31.6066 13.4671C31.2687 12.7763 30.4934 11.5329 29.8572 10.7237C29.241 9.9342 28.1873 8.84867 27.5313 8.33552C26.8753 7.82236 25.762 7.09209 25.0464 6.69736C24.3307 6.32236 22.9392 5.76973 21.9651 5.49341C20.4741 5.07894 19.7783 4.99999 17.8898 5.01973C16.0807 5.01973 15.2657 5.13815 13.9536 5.51315Z" fill="#2881B1"/>
<path d="M23.7743 20.1184C23.6749 20.1974 23.6153 20.5132 23.6352 20.8289C23.655 21.125 24.2514 23.0395 24.9671 25.0724C25.6827 27.1053 26.3785 28.8816 26.5177 29C26.6966 29.1579 27.8496 29.1776 30.752 29.0395C32.9388 28.9408 34.9267 28.8026 35.1653 28.7632C35.4237 28.7039 35.702 28.4868 35.8213 28.2697C35.9207 28.0526 35.9406 27.7368 35.8611 27.5592C35.7815 27.3816 34.9267 26.7105 33.9725 26.0789C33.0183 25.4474 32.1833 24.9145 32.1237 24.9145C32.084 24.9145 31.1496 24.3224 30.096 23.5921C29.0225 22.8816 28.108 22.2303 28.0484 22.1513C27.9888 22.0921 27.2532 21.5789 26.4183 21.0066C25.5635 20.4539 24.649 20 24.4105 20C24.152 20 23.8737 20.0592 23.7743 20.1184Z" fill="#D9D9D9"/>
</g>
<defs>
<clipPath id="clip0_267_55">
<rect width="33" height="30" fill="white" transform="translate(3 5)"/>
</clipPath>
</defs>
</svg>
