<svg version="1.2" xmlns="http://www.w3.org/2000/svg" viewBox="0 0 96 96" width="96" height="96"><style>.a{fill:#fff}</style><path fill-rule="evenodd" class="a" d="m36.4 10c20.6 0 25.4 0.3 26.6 1.5 0.8 0.8 5.8 2.1 11 3 5.2 0.8 10.1 2 10.8 2.7 0.7 0.7 1.3 3.3 1.2 5.8 0 2.5-1.8 16.8-4 31.8-2.2 14.9-4.5 28.1-5 29.2-0.8 1.6-2 2-5.8 2-2.6 0-14-1.3-25.4-3-11.5-1.6-23.6-3-27.1-3-3.7 0-6.7-0.5-7.5-1.2-0.9-1-1.3-9.2-1.4-34.4-0.1-18.2 0.2-33.4 0.7-33.7 0.5-0.4 12.1-0.7 25.9-0.7zm-20.4 64l41.5-0.5 0.5-57.5h-42z"/></svg>