<svg version="1.2" xmlns="http://www.w3.org/2000/svg" viewBox="0 0 39 40" width="39" height="40"><style>.a{opacity:.98;fill:#2880b0}</style><path class="a" d="m4.5 13.6c-2.2 2.1-2.8 3.5-2.7 6.8 0.1 3.1 0.8 4.8 2.9 6.9 2 2 3.8 2.8 6.3 2.8 1.9 0 4.5-0.8 5.8-1.8 2.1-1.6 2.2-2 0.8-3.8-1.4-1.9-1.5-1.9-3.3-0.2-1.1 1.2-2.6 1.6-4 1.3-1.3-0.3-2.8-1.5-3.3-2.6-0.5-1.1-0.8-2.9-0.5-4 0.3-1.1 1.4-2.4 2.5-3q2-1 4 0c1.1 0.6 3.1 3.3 4.5 6 1.4 2.8 3.5 5.7 4.8 6.5 1.2 0.8 3.8 1.5 5.8 1.5 2.6 0 4.4-0.8 6.3-2.7 2-2.1 2.7-3.8 2.7-6.8 0-3-0.7-4.7-2.8-6.8-2-2-3.8-2.8-6.3-2.8-1.9 0-4.5 0.8-5.8 1.8-2.1 1.6-2.2 2-0.8 3.8 1.4 1.9 1.5 1.9 3.3 0.2 1.1-1.2 2.6-1.6 4.1-1.3 1.2 0.3 2.6 1.5 3.2 2.6 0.5 1.1 0.8 2.9 0.5 4-0.3 1.1-1.4 2.4-2.5 3-1.2 0.6-2.7 0.6-3.7 0.1-1-0.4-3.3-3.4-5-6.5-1.8-3.1-4.2-6-5.3-6.6-1.1-0.6-3.5-1-5.4-1-2.2 0-4.2 0.9-6.1 2.6z"/></svg>