<svg version="1.2" xmlns="http://www.w3.org/2000/svg" viewBox="0 0 150 156" width="150" height="156">
	<title>Unit</title>
	<style>
		.s0 { fill: #ffffff } 
	</style>
	<path id="Path 0" fill-rule="evenodd" class="s0" d="m129 17.5l6.5 6.5v53l-6.5 6.5h-78l-6.5-6.5-0.3-24.8c-0.3-19.5-0.1-25.4 1-28.2 0.9-2.2 2.7-4.1 4.9-5.2 3.1-1.6 6.9-1.8 78.9-1.3zm-48.4 32.3c-3.1 8.6-5.6 16-5.6 16.4 0 0.5 1.2 0.8 2.7 0.8 2.4 0 3-0.5 4-4l1.3-4 13.5 0.5c2.1 6.4 2.8 7 5.4 7.3 1.7 0.1 3.1-0.1 3.1-0.5 0-0.5-2.6-7.9-5.8-16.6l-5.7-15.8-7.3 0.1zm-52.3 22.3c2.9 0 5.3 0.5 6.2 1.5 0.8 0.8 1.5 2.2 1.5 3.2 0 1 1.3 3.8 2.8 6.3 1.6 2.4 4.1 5.1 5.6 6 1.4 0.8 2.9 2 3.1 2.7 0.3 0.7-0.3 2.5-1.2 4-1.3 1.9-1.8 4.7-1.8 9.7 0 5.5 0.5 7.8 2.2 10.6 1.2 1.9 3.5 4.2 5.2 5.2 2 1.1 5.1 1.7 8.9 1.7 4 0 6.2 0.4 7.2 1.6 0.8 0.8 2.6 1.5 4 1.5 1.9 0 2.3-0.2 1.4-1.3-0.6-0.7-1.3-1.9-1.7-2.7-0.3-0.9 0.4-3.3 1.6-5.5 1.7-3.2 2.1-5.5 1.9-11-0.1-3.9-0.3-8.4-0.7-13l14.3-0.3c12.5-0.2 14.4 0 15.8 1.5 1.4 1.5 1.6 4.3 0.9 38.2l-6.5 6.6h-78l-6.5-6.6-0.3-24.7c-0.3-19.5-0.1-25.5 1.1-28.3 0.8-2.2 2.6-4.1 4.8-5.2 1.9-0.9 5.5-1.7 8.2-1.7zm31.7 20.9c1.4 0 3.5 0.7 4.8 1.5 1.2 0.9 2.9 2.9 3.7 4.6 0.8 1.6 1.5 4.5 1.5 6.5 0 1.9-0.4 4.4-1 5.5-0.8 1.5-1.7 1.9-4.5 1.5-3.1-0.5-3.4-0.3-3 1.5 0.3 1 0.1 2.6-0.5 3.5-0.8 1.2-1.5 1.3-4.2 0.2-1.8-0.7-4-2.6-5-4.2-1-1.7-1.8-5-1.8-7.3 0-2.3 0.7-5.6 1.5-7.2 0.8-1.7 2.5-3.7 3.8-4.6 1.2-0.8 3.3-1.5 4.7-1.5zm30.1-50.9c0.5 0 1.3 0.7 1.8 1.7 0.5 1 1.3 3.5 1.7 5.8 0.6 3.5 0.4 4-1.5 4.7-1.1 0.4-3 0.5-4.1 0.3-1.1-0.3-2.2-1.2-2.5-2-0.3-0.9 0-3 0.7-4.8 0.6-1.8 1.5-3.8 2.1-4.5 0.5-0.7 1.3-1.2 1.8-1.2z"/>
</svg>