<svg version="1.2" xmlns="http://www.w3.org/2000/svg" viewBox="0 0 316 316" width="64" height="64"><style>.a{opacity:.99;fill:#fefefe}</style><path fill-rule="evenodd" class="a" d="m171.8 53c107.9 0 109.2 0 111.2 2 1.1 1.1 2.7 3 3.6 4.3 1 1.4 1.4 3.4 1 5.7-0.3 1.9-1.7 4.6-5.8 8.5l-218.3 1-5.8 2.8c-3.1 1.5-8 4.8-10.8 7.5-3 2.8-6.3 7.1-8 10.7-2.5 5.3-2.8 7.1-2.9 15.3 0 7.7 0.4 10.1 2.5 14.7 1.4 3.1 4.9 7.9 8 11 3 3 7.9 6.6 10.7 7.9 4.3 1.9 7.8 2.5 18.3 3.1 7.2 0.4 15.1 0.5 22.5-0.5v-24l3.7-3.7c3.3-3.1 4.3-3.6 7.3-3.1 1.9 0.2 5.3 1.8 7.5 3.5 2.2 1.7 9.9 9.1 17.1 16.5 7.1 7.3 14 14.6 15.2 16.3 1.3 1.7 2.2 4.3 2.2 6 0 1.7-0.5 3.7-1 4.5-0.5 0.8-8.7 9.3-18.2 18.9-9.5 9.5-18.3 17.8-19.6 18.2-1.2 0.5-3.2 0.9-4.5 0.9-1.2-0.1-3.9-1.8-9.6-7.5l-0.1-23-3.2-0.8c-1.8-0.4-9.4-0.7-16.8-0.7-10.1 0-15.1-0.5-20-1.8-3.6-1-9.6-3.4-13.5-5.3-4.6-2.2-9.1-5.6-13.5-9.9-4.3-4.3-7.8-9.1-10.3-14-2.1-4.1-4.1-9.4-4.5-11.8-0.4-2.3-1-4.2-1.5-4.2-0.4 0-0.7-4.9-0.7-11 0-6 0.3-11.2 0.7-11.4 0.5-0.2 1.2-2.3 1.6-4.7 0.5-2.4 1.9-6.6 3.2-9.4 1.4-2.7 4.5-7.6 7-10.7 2.5-3.2 6.9-7.5 9.7-9.7 2.9-2.1 7.5-5 10.3-6.5 2.7-1.4 5.7-2.6 6.5-2.6 0.8 0 3.3-0.7 5.5-1.5 3.4-1.2 20.7-1.4 113.3-1.5zm-151.5 190h17.1c16.2 0 17.2 0.1 19.9 2.3 1.9 1.5 3 3.4 3.4 6.2 0.3 2.2 0.1 5-0.6 6.3-0.6 1.2-2.6 3.1-4.3 4.2-2.9 1.8-5.1 2-18.3 2-14.1 0.1-15.2-0.1-18-2.2-1.6-1.2-3.5-2.9-4.2-3.8-0.7-0.8-1.3-3-1.5-4.8-0.1-2.5 0.6-4.1 3.2-6.7zm186.7-95l3.5 3.5c2.6 2.6 3.5 4.3 3.5 7 0 2.6-0.9 4.3-6.8 10.5h-14.1c-13.3 0-14.3-0.2-16.9-2.4-1.5-1.2-3.3-3.6-3.9-5.2-0.8-2.2-0.8-3.7 0.1-5.9 0.7-1.7 2.5-4 4-5.3 2.7-2.1 3.9-2.2 30.6-2.2zm29.4-0.3l8.5 0.6c4.7 0.3 10.6 1.3 13.1 2.2 2.4 0.9 6.5 2.6 8.9 3.8 2.4 1.2 5.3 3.3 6.3 4.7 1 1.3 2.1 3.6 2.4 5 0.3 1.3 0 3.8-0.8 5.4-0.7 1.6-2.5 3.7-3.8 4.8-1.4 1-4 1.8-5.8 1.8-1.8 0-5.9-1.4-9.2-3-3.5-1.8-7.6-3-9.8-3-2.1 0-5.4-0.5-7.5-1-2.1-0.6-4.9-2.4-6.2-4-1.5-1.8-2.6-4.4-2.7-6.5-0.1-2.6 0.7-4.3 3.3-7.1zm50.8 44.4c0.4-0.1 2.2 0.4 4 1.1 1.7 0.8 4 2.5 5 3.8 1.3 1.9 1.7 4.4 1.7 10.9q0 8.5-1.9 14c-1.1 3.1-3 7.8-4.4 10.5-1.4 2.8-4.3 7.3-6.4 10-2.2 2.8-6.1 6.3-8.6 7.8-4 2.3-5.2 2.6-7.9 1.8-1.8-0.6-4.3-2-5.5-3.3-1.2-1.2-2.5-3.4-2.8-4.8-0.4-1.5 0-3.8 1.1-6 0.9-1.9 3.8-5.8 6.3-8.6 2.7-3.1 5.3-7.3 6.4-10.5 1-3 2.2-9 2.7-13.4 0.7-5.8 1.5-8.6 3-10.2 1.2-1.2 3.1-2.3 4.3-2.6 1.2-0.2 2.5-0.5 3-0.5zm-196.4 50.8h53.1l2.6 2.8c1.4 1.5 3 3.7 3.5 5q0.9 2.2-0.5 5.5c-0.7 1.8-2.3 4.1-3.6 5.2-2.1 1.9-3.6 2-55.2 2l-2.5-3c-1.3-1.6-2.8-3.9-3.2-5-0.5-1.1-0.4-3.1 0-4.5 0.5-1.3 2-3.7 3.3-5.2zm116.1 0c26.3-0.1 26.5 0 28.7 2.2 1.2 1.3 2.7 3.5 3.3 5 0.7 2.1 0.7 3.6-0.3 6-0.7 1.8-2.6 4.3-4.3 5.6-2.8 2.2-3.4 2.3-27.4 2.2-22.7 0-24.7-0.2-27.7-2-1.8-1.1-3.8-3.3-4.4-4.8-0.6-1.5-0.8-4.3-0.5-6.2 0.3-2.2 1.6-4.4 3.3-5.8 2.8-2.2 3.4-2.2 29.3-2.2z"/></svg>