<svg width="29" height="29" viewBox="0 0 29 29" fill="none" xmlns="http://www.w3.org/2000/svg">
<path d="M4.53125 3.625V17.2188C4.53125 17.9398 4.81769 18.6313 5.32755 19.1412C5.83742 19.6511 6.52894 19.9375 7.25 19.9375H9.96875M4.53125 3.625H2.71875M4.53125 3.625H24.4688M9.96875 19.9375H19.0313M9.96875 19.9375L8.76042 23.5625M24.4688 3.625H26.2813M24.4688 3.625V17.2188C24.4688 17.9398 24.1823 18.6313 23.6724 19.1412C23.1626 19.6511 22.4711 19.9375 21.75 19.9375H19.0313M19.0313 19.9375L20.2396 23.5625M8.76042 23.5625H20.2396M8.76042 23.5625L8.15625 25.375M20.2396 23.5625L20.8438 25.375M10.875 13.5938V15.4063M14.5 10.875V15.4063M18.125 8.15625V15.4063" stroke="#727272" stroke-width="1.5" stroke-linecap="round" stroke-linejoin="round"/>
</svg>
