<svg viewBox="0 0 111 132" xmlns="http://www.w3.org/2000/svg">
  <!-- Document base -->
  <path d="M5 16C5 9.92486 9.92487 5 16 5H66.2393C68.9805 5 71.62 6.01947 73.6349 7.8781C77.0637 11.0409 82.6501 16.2383 87 20.5C91.5644 24.9718 98.1746 31.8426 101.985 35.8317C103.927 37.8655 105 40.5673 105 43.3799V114C105 120.075 100.075 125 94 125H16C9.92487 125 5 120.075 5 114V16Z" fill="#D9D9D9"/>
  
  <!-- Document folded corner -->
  <path d="M68.1191 5.16504C70.1682 5.52028 72.0862 6.44955 73.6348 7.87793C77.0636 11.0407 82.6501 16.2383 87 20.5C91.5644 24.9718 98.1742 31.843 101.984 35.832C103.607 37.5304 104.62 39.6945 104.911 42H82C74.268 42 68 35.732 68 28V7C68 6.37804 68.0405 5.76555 68.1191 5.16504Z" fill="#8B8B8B"/>
  
  <!-- "MS" text -->
  <path d="M21 60H30.0979L39.7117 83.5134H40.1103L49.7475 60H58.9159V95H51.6703V72.2147H51.4124L42.3378 94.8356H37.4372L28.4565 72.1678H28.1517V95H21V60Z
  M72.1173 79.8255V95H64.8482V68.7383H72V73.4127H72.2579C72.8519 71.8781 73.7977 70.6645 75.0952 69.7718C76.3926 68.8635 78.0105 68.4094 79.949 68.4094C82.6845 68.4094 84.8732 69.2942 86.5144 71.0638C88.1715 72.8177 89 75.2293 89 78.2987V95H81.731V79.5907C81.731 77.9776 81.3169 76.7171 80.4883 75.8088C79.6754 74.9005 78.5421 74.4462 77.0882 74.4462C75.6189 74.4462 74.423 74.924 73.5007 75.8792C72.5784 76.8187 72.1173 78.1342 72.1173 79.8255Z" fill="url(#paint0_linear)"/>
  
  <!-- Gradient definition -->
  <defs>
    <linearGradient id="paint0_linear" x1="89" y1="68" x2="21" y2="95" gradientUnits="userSpaceOnUse">
      <stop offset="0.75" stop-color="#2881B1"/>
      <stop offset="0.9" stop-color="#3955B0"/>
    </linearGradient>
  </defs>
</svg>