<svg version="1.2" xmlns="http://www.w3.org/2000/svg" viewBox="0 0 458 458" width="458" height="458"><style>.a{opacity:.99;fill:#2782b3}</style><path fill-rule="evenodd" class="a" d="m361.5 45.5l4 2.7c2.2 1.5 5 3.4 6.3 4.3 1.2 0.8 4 4.2 10.2 13.5v263.5l-2.3 4.4c-1.2 2.4-4 6.1-6.2 8.2-2.2 2.1-5.8 5-12 9.4l-118.5 0.2c-65.2 0.1-120.3 0.5-122.5 0.8-2.9 0.4-5.1 1.7-8 4.6-3.7 3.7-4 4.4-4 9.4 0 4.6 0.4 5.8 3 8.5 1.7 1.8 3.9 3.7 5 4.3 1.5 0.9 35.2 1.3 257.4 2.2l4.1 4c4 4 4 4.1 4 11.5 0 7.4 0 7.5-8.1 15.5l-265.4-0.1-3-2.2c-1.7-1.3-3.5-2.2-4-2.2-0.5 0-2.8-1.3-5-3-2.2-1.6-5.6-4.5-7.5-6.4-1.9-1.9-4.4-4.7-5.6-6.3-1.2-1.5-2.5-3.9-2.9-5.3-0.4-1.4-1.5-3.3-2.4-4.4-1.5-1.6-1.6-14.8-1.9-153-0.2-145.2-0.1-151.2 1.6-153.6 1-1.4 2.4-4 3-5.8 0.7-1.7 1.9-4 2.7-5 0.8-0.9 3.1-3.6 4.9-6 1.9-2.3 4.1-4.2 4.8-4.2 0.7 0.1 2-0.7 2.8-1.6 0.8-1 3.4-2.6 5.8-3.6 2.3-1 4.2-2.3 4.2-2.8 0-0.6 1.9-1.2 4.3-1.3 2.3-0.2 59.8-0.3 251.2-0.2zm-206 70.2c-4.9 9.8-9.4 18.5-10.1 19.3-0.6 0.8-1.6 3.1-2.2 5-0.6 1.9-1.8 4.2-2.7 5-0.8 0.8-1.8 2.6-2 4-0.3 1.4-1.3 3.6-2.3 5-1 1.4-2.4 4.1-3.2 6-0.7 1.9-1.9 4.2-2.5 5-0.7 0.8-1.9 3.3-2.6 5.5-0.7 2.2-1.8 4.7-2.5 5.5-0.6 0.8-1.4 2.8-1.7 4.5-0.4 1.6-0.2 4.6 0.4 6.5 0.5 1.9 2.5 5 4.4 6.7 3 2.8 4.2 3.3 8.5 3.3 4.4 0 5.5-0.5 9.2-3.8 2.2-2 5-5.5 6-7.7 1.1-2.2 2.8-5.6 3.8-7.5 1.1-1.9 1.9-4.2 1.9-5 0-0.8 1-2.4 2.2-3.5 1.9-1.8 3.5-2 15.4-2 11.9 0 13.5 0.2 15.4 2 1.2 1.1 2.2 2.4 2.1 3 0 0.6 1.8 4.6 3.9 9 2.4 4.9 5.5 9.5 8 11.7 3.6 3.3 4.7 3.8 9.1 3.8 4.4 0 5.4-0.4 8.8-3.8 2.3-2.2 4.2-5.1 4.6-7.2 0.4-1.9 0.5-4.6 0.2-6-0.3-1.4-1.2-3.2-2.1-4-0.8-0.8-1.7-2.9-2-4.5-0.2-1.7-1.3-4.1-2.3-5.5-1.1-1.4-2.4-4.1-3-6-0.6-1.9-1.8-4.2-2.7-5-0.8-0.8-1.8-2.6-2-4-0.3-1.4-1.3-3.6-2.3-5-1.1-1.4-2.4-4.1-3-6-0.6-1.9-1.8-4.2-2.7-5-0.8-0.8-1.8-2.6-2-4-0.3-1.4-1.3-3.6-2.3-5-1-1.4-2.4-4.1-3.1-6-0.7-1.9-1.8-4.2-2.5-5-0.8-0.8-1.9-3.2-2.5-5.3-0.6-2-1.5-3.9-2.1-4.2-0.6-0.3-1.6-2-2.3-3.8-0.9-2-3-4.2-6-6-2.6-1.5-5.9-2.7-7.4-2.7-1.6 0.1-4.6 1.2-6.8 2.5-3.6 2.1-5 4.3-13 20.2zm94.2 104c-3.4 3.5-3.7 4.3-3.7 9.3 0 5 0.3 5.8 3.7 9.2 2.1 2 5.6 4.1 7.8 4.7 2.2 0.6 8.6 1.1 14.3 1.1 5.8 0 10.4 0.4 10.7 1 0.3 0.6 0.2 1.7-0.2 2.6-0.5 0.9-1.7 2.2-2.8 2.8-1.1 0.6-9.1 8.4-17.8 17.3l-15.7 16.3c0 11.7 0.2 12.2 4 15.7 2.5 2.3 5.5 4.1 7.8 4.5 2 0.4 16.5 0.7 32.2 0.7 15.7 0 30.3-0.4 32.5-0.9 2.4-0.6 5.5-2.4 7.8-4.7 3.4-3.5 3.7-4.3 3.7-9.3 0-5-0.3-5.8-3.7-9.2-2.1-2-5.6-4.1-7.8-4.7-2.2-0.6-8.6-1.1-14.2-1.1h-10.3c0-4 0.8-5.4 2-6 1.1-0.6 6.8-5.9 12.8-11.8 5.9-5.9 13-13.4 15.8-16.7 2.9-3.3 5.5-7.4 5.8-9 0.3-1.7 0.2-4.6-0.4-6.5-0.6-1.9-2.2-4.5-3.5-5.8-1.4-1.2-3.5-2.8-4.7-3.5-1.7-0.9-10.8-1.2-33.8-1.4-17.3-0.1-33.1 0.2-35 0.7-1.9 0.5-5.2 2.6-7.3 4.7z"/></svg>