<svg version="1.2" xmlns="http://www.w3.org/2000/svg" viewBox="0 0 150 156" width="150" height="156">
	<title>Unit</title>
	<style>
		.s0 { opacity: .99;fill: #ffffff } 
	</style>
	<path id="Path 0" fill-rule="evenodd" class="s0" d="m20 3c4.9 0 7.4 0.5 10 2.1 1.9 1.2 4.3 3.1 5.4 4.3 1 1.1 2.7 4 3.7 6.3 1.1 2.4 1.9 5.5 1.9 7.1 0 1.5-0.7 4.5-1.6 6.7-0.9 2.2-4 6.5-6.9 9.5-2.9 3-5.7 6.5-6.4 7.8-0.9 1.7-2 2.2-5.3 2.2-2.7 0.1-4.8-0.5-5.5-1.5-1.1-1.2-0.9-2.3 0.7-5.8 1-2.3 4.2-6.4 7-9.2 2.9-2.8 5.4-6.1 5.7-7.5 0.3-1.4 0.2-3.6-0.2-5-0.4-1.4-1.7-3.3-2.8-4.3-1.2-1-3.8-1.8-5.7-1.8-1.9 0-4.5 0.8-5.7 1.8-1.2 1-2.6 3.2-3.1 4.8-0.8 2.8-1.2 3-5.8 3-4.9 0-4.9 0-5.2-3.5q-0.3-3.5 2.3-7.8c1.4-2.4 4.3-5.3 6.8-6.7 3.3-2 5.6-2.5 10.7-2.5zm54.5 14.2c3.3-0.1 8.7 0.5 12 1.2 3.3 0.7 8.5 2.3 11.5 3.6 3 1.3 7.3 3.5 9.5 4.8 2.2 1.4 7.2 5.7 11 9.7 4.4 4.5 8.1 9.5 10.1 13.6 1.7 3.5 3.6 7.8 4.2 9.4 0.6 1.6 1.6 5.4 2.1 8.3 0.6 2.8 1.1 7.6 1.1 10.4-0.1 2.9-0.7 8-1.4 11.3-0.7 3.3-2.3 8.5-3.6 11.5-1.3 3-3.5 7.3-4.8 9.5-1.4 2.2-5.7 7.2-9.7 11-4.5 4.4-9.5 8.1-13.6 10.1-3.5 1.7-7.7 3.6-9.4 4.2-1.7 0.6-5.4 1.6-8.3 2.1-2.8 0.6-7.6 1.1-10.4 1.1-2.9-0.1-8-0.7-11.3-1.4-3.3-0.7-8.5-2.3-11.5-3.6-3-1.3-7.3-3.5-9.5-4.9-2.2-1.3-6.7-5.2-10.1-8.5-3.3-3.4-7.2-7.9-8.6-10.1-1.3-2.2-3.5-6.5-4.9-9.7-2.3-5.4-2.3-5.7-0.6-8.2 1.3-2 2.4-2.5 5-2.4 2.9 0.3 3.5 0.9 7.1 8.3 2.7 5.5 5.9 9.9 10 14.1 4.2 4.2 8.6 7.3 22.1 13.9h12.5c12.5-0.1 12.5-0.1 20.5-3.9 5.6-2.7 9.9-5.8 14.1-10 4.2-4.2 7.3-8.5 10-14.1 3.8-8 3.8-8 3.9-33l-3.9-8c-2.7-5.5-5.8-9.9-10-14.1-4.1-4.1-8.6-7.3-13.6-9.7-5.9-2.9-9.2-3.8-15.5-4.3-4.7-0.4-10.8-0.2-14.8 0.5-4.5 0.7-7.3 0.8-8.7 0.1-1.1-0.6-2.3-2.2-2.7-3.6-0.5-1.9-0.1-3.1 1.6-4.7 1.2-1.2 4.5-2.7 7.4-3.3 2.9-0.6 7.9-1.2 11.2-1.2zm-12.1 34.8c1.6 0 3.8 1.2 5.6 3 1.7 1.7 3 4.1 3 5.5 0 1.5-1.3 3.7-3.1 5.5-1.7 1.7-4.1 3-5.5 3-1.3 0-3.7-1.3-5.4-3-1.8-1.8-3-4-2.9-5.4 0.1-1.3 1.4-3.8 2.9-5.5 1.8-2 3.8-3.1 5.4-3.1zm40 0c1.6 0 3.8 1.2 5.6 3 1.7 1.7 3 4.1 3 5.5 0 1.5-1.3 3.7-3.1 5.5-1.7 1.7-4.1 3-5.5 3-1.3 0-3.7-1.3-5.4-3-1.8-1.8-3-4-2.9-5.4 0.1-1.3 1.4-3.8 2.9-5.5 1.8-2 3.8-3.1 5.4-3.1zm-82.4 8c1.9 0 3.9 0.9 5.5 2.5 1.6 1.6 2.5 3.6 2.5 5.5 0 1.8-0.9 4-2.5 5.5-1.5 1.6-3.5 2.5-5.5 2.5-1.9 0-3.9-0.9-5.5-2.5-1.6-1.6-2.5-3.6-2.5-5.5 0.1-1.9 1.1-4.1 2.5-5.5 1.5-1.6 3.5-2.5 5.5-2.5zm77.3 17.1c2.7-0.1 4.4 0.6 6.2 2.4 1.4 1.4 2.5 2.9 2.5 3.5 0 0.5-1 2-2.2 3.3-1.8 1.9-3.8 2.5-9.5 3-4.7 0.5-9.3 1.7-13 3.4-3.2 1.5-7.6 4.7-9.9 7-2.2 2.4-4.6 4.3-5.2 4.3-0.7 0-2.1-0.5-3.2-1-1.1-0.6-2.4-1.9-3-3-0.8-1.5-0.5-2.8 0.9-5.3 1-1.7 4-4.9 6.7-6.9 2.7-2 7.2-4.7 9.9-5.9 2.8-1.2 7.5-2.8 10.5-3.5 3-0.6 7.2-1.2 9.3-1.3z"/>
</svg>