<svg width="20" height="20" viewBox="0 0 20 20" fill="none" xmlns="http://www.w3.org/2000/svg">
<path fill-rule="evenodd" clip-rule="evenodd" d="M10 0.25C4.61522 0.25 0.25 4.61522 0.25 10C0.25 15.3848 4.61522 19.75 10 19.75C15.3848 19.75 19.75 15.3848 19.75 10C19.7443 4.61758 15.3824 0.255684 10 0.25ZM10 18.25C5.44365 18.25 1.75 14.5563 1.75 10C1.75 5.44365 5.44365 1.75 10 1.75C14.5563 1.75 18.25 5.44365 18.25 10C18.2448 14.5542 14.5542 18.2448 10 18.25ZM14.5 10C14.5 10.4142 14.1642 10.75 13.75 10.75H10.75V13.75C10.75 14.1642 10.4142 14.5 10 14.5C9.58579 14.5 9.25 14.1642 9.25 13.75V10.75H6.25C5.83579 10.75 5.5 10.4142 5.5 10C5.5 9.58579 5.83579 9.25 6.25 9.25H9.25V6.25C9.25 5.83579 9.58579 5.5 10 5.5C10.4142 5.5 10.75 5.83579 10.75 6.25V9.25H13.75C14.1642 9.25 14.5 9.58579 14.5 10Z" fill="white"/>
</svg>
