<svg version="1.2" xmlns="http://www.w3.org/2000/svg" viewBox="0 0 316 316" width="64" height="64"><style>.a{opacity:.99;fill:#797979}</style><path class="a" d="m69.8 42.8c-1.7 0.9-4 2.8-5.1 4.2-1 1.4-1.9 3.9-1.8 5.5 0 1.7 1.1 4.6 2.5 6.5 1.4 1.9 23.7 24.6 49.6 50.5 25.9 25.9 47 47.7 47 48.5 0 0.8-20.5 22-45.6 47-25.1 25-47.4 47.6-49.5 50.3-2.9 3.5-3.9 5.6-3.9 8.2 0 2.7 0.8 4.3 3.5 7 2.5 2.5 4.4 3.5 6.8 3.5 2 0 4.7-1 7.2-2.9 2.2-1.6 27.5-26.4 56.1-55.2 38.6-38.8 52.3-53.2 52.8-55.4 0.4-1.6 0.2-4.3-0.4-6-0.7-1.8-22.7-24.5-55.3-57.1-37.8-37.8-55.2-54.5-57.4-55.2-2.6-0.8-3.9-0.7-6.5 0.6zm74.1-0.4c-1.8 0.7-3.8 2.1-4.5 3.2-0.7 1-1.7 3-2.2 4.4-0.7 1.8-0.6 3.5 0.4 6 1 2.3 18.4 20.4 49.9 52 26.7 26.7 48.5 49.2 48.5 50 0 0.8-21 22.4-46.6 48-25.6 25.6-47.9 48.3-49.5 50.5-1.9 2.5-2.9 5.2-2.9 7.3 0 2.3 1 4.2 3.5 6.7 2.7 2.7 4.3 3.5 7 3.5 2.9 0 4.6-1 9.8-5.7 3.4-3.1 28.6-28.2 56-55.8l49.8-50-0.1-9.5c-91.2-91.3-110.6-109.9-112.7-110.7-2.3-0.8-4-0.8-6.4 0.1z"/></svg>