<svg width="29" height="29" viewBox="0 0 29 29" fill="none" xmlns="http://www.w3.org/2000/svg">
<path d="M23.5625 17.2188V14.0469C23.5625 12.9653 23.1328 11.928 22.368 11.1632C21.6032 10.3984 20.566 9.96875 19.4844 9.96875H17.6719C17.3113 9.96875 16.9656 9.82553 16.7107 9.5706C16.4557 9.31567 16.3125 8.9699 16.3125 8.60938V6.79688C16.3125 5.71529 15.8828 4.678 15.118 3.91321C14.3532 3.14841 13.316 2.71875 12.2344 2.71875H9.96875M12.6875 2.71875H6.79688C6.0465 2.71875 5.4375 3.32775 5.4375 4.07813V24.9219C5.4375 25.6723 6.0465 26.2813 6.79688 26.2813H22.2031C22.9535 26.2813 23.5625 25.6723 23.5625 24.9219V13.5938C23.5625 10.7095 22.4167 7.94342 20.3773 5.90396C18.3378 3.86451 15.5717 2.71875 12.6875 2.71875Z" stroke="#727272" stroke-width="1.5" stroke-linecap="round" stroke-linejoin="round"/>
</svg>
