<svg version="1.2" xmlns="http://www.w3.org/2000/svg" viewBox="0 0 150 156" width="150" height="156">
	<title>Unit</title>
	<style>
		.s0 { opacity: 1;fill: #ffffff } 
	</style>
	<path id="Path 0" fill-rule="evenodd" class="s0" d="m53.5 22.1l3.8 3.9c3 3.3 3.7 4.6 3.2 11.1h29l-0.3-3.5c-0.2-3 0.5-4.3 7.6-11.6h12.6c9.2 0 13.4 0.4 15.6 1.5 1.7 0.8 3.7 3 4.6 4.7 1.3 2.7 1.5 5.8 0.9 28.8l-3.3 3.2c-2.6 2.6-4.1 3.3-11.3 3.3v29l3.5-0.3c3-0.2 4.3 0.5 11.5 7.3l0.1 12.2c0 8.8-0.4 13.3-1.5 15.8-1 2.4-2.7 4-5.2 5.1-3 1.2-6.5 1.5-28.5 0.9l-3.4-3.8c-2.7-3-3.4-4.4-2.9-10.8h-29v3.3c-0.1 1.8-0.8 4.5-1.8 6-0.9 1.6-3.3 3.5-5.2 4.3-2.4 1-6.9 1.5-13.7 1.5-7.8 0-11.2-0.4-13.8-1.8-2-1-4.2-3.2-5.2-5.2-1.4-2.7-1.8-6-1.8-14.5 0-9.2 0.3-11.5 2-14.3 1.1-1.7 3.4-3.9 5-4.7 1.7-0.8 4.2-1.4 8.1-1v-29l-4.3-0.1c-3.6-0.1-4.8-0.7-10.8-7.4v-12.5c0-9.1 0.4-13.3 1.5-15.5 0.8-1.6 2.7-3.7 4.3-4.5 2-1 6.2-1.4 28.7-1.4zm7.2 30.6c-0.2 3.3-0.9 5-3.5 7.5-2.6 2.6-4.1 3.3-7.3 3.3h-4v29c3.9-0.4 6.5 0.2 8.1 1 1.7 0.8 3.8 2.7 4.7 4.2 1 1.6 1.7 4.3 1.8 6.1v3.3h29c-0.5-6.5 0.1-7.7 3.5-11.1 3.4-3.4 4.6-4 7.6-3.8l3.5 0.3v-29c-7.9-0.2-9.1-0.8-11.8-3.9-2.6-2.8-3.2-4.4-3-7.2l0.2-3.5c-22.1-0.3-28.5-0.4-28.6-0.4 0 0-0.1 1.9-0.2 4.2zm-29.7 69.3h18v-18h-18z"/>
</svg>